<svg xmlns="http://www.w3.org/2000/svg" id="Layer_2" data-name="Layer 2" viewBox="0 0 1536 571.84"><defs><style>      .cls-1 {        fill: #fffdfa;        stroke-width: 0px;      }    </style></defs><g id="Layer_1-2" data-name="Layer 1"><g><g><path class="cls-1" d="M177.17,518.55h8.08l23.99,51.71h-9.74l-6.26-13.94h-24.63l-6.18,13.94h-9.27l24-51.71ZM171.78,549.19h18.29l-8.87-20.04h-.47l-8.95,20.04Z"></path><path class="cls-1" d="M260.59,570.26v-51.71h41.58v7.92h-32.71v12.83h19.88v7.92h-19.88v23.05h-8.87Z"></path><path class="cls-1" d="M329.72,518.55v43.79h31.76v7.92h-40.63v-51.71h8.87Z"></path><path class="cls-1" d="M403.75,516.96c16.31,0,29.3,12.2,29.3,27.32s-12.99,27.56-29.3,27.56-29.06-12.2-29.06-27.56,12.75-27.32,29.06-27.32ZM403.75,563.93c11.17,0,19.96-8.87,19.96-19.64s-8.79-19.4-19.96-19.4-19.72,8.71-19.72,19.4,8.63,19.64,19.72,19.64Z"></path><path class="cls-1" d="M454.18,570.26v-51.71h28.51c6.89,0,11.64,1.9,14.97,5.46,2.61,2.77,4.12,6.41,4.12,10.37,0,6.97-4.59,12.27-11.4,14.81l12.35,21.07h-10.22l-11.09-19.88h-18.37v19.88h-8.87ZM463.05,526.47v16h21.22c4.67,0,8.63-3.64,8.63-8.08,0-1.98-.79-3.72-2.14-5.15-2.46-2.54-5.31-2.77-8.08-2.77h-19.64Z"></path><path class="cls-1" d="M524.1,570.26v-51.71h8.87v51.71h-8.87Z"></path><path class="cls-1" d="M558.78,570.26v-51.71h24.79c9.35,0,14.57,2.61,19.01,6.89,4.59,4.75,7.05,11.4,7.05,18.93s-2.69,14.81-7.6,19.56c-4.44,3.96-9.11,6.34-18.45,6.34h-24.79ZM583.17,562.34c6.57,0,8.79-1.5,11.88-4.04,3.33-3.33,5.31-8.4,5.31-13.94s-1.74-10.22-4.99-13.54c-2.93-2.69-5.7-4.36-12.2-4.36h-15.52v35.87h15.52Z"></path><path class="cls-1" d="M647.46,518.55h8.08l23.99,51.71h-9.74l-6.26-13.94h-24.63l-6.18,13.94h-9.27l24-51.71ZM642.08,549.19h18.29l-8.87-20.04h-.47l-8.95,20.04Z"></path><path class="cls-1" d="M764.04,530.66c-2.85-2.61-9.27-6.02-18.77-6.02-6.18,0-11.64,1.98-11.64,7.44s7.68,5.86,15.52,6.42c9.27.63,23.84,1.58,23.84,16,0,12.51-10.45,17.34-22.81,17.34-13.62,0-22.49-5.62-28.27-10.85l5.39-6.18c4.2,3.8,11.48,9.35,23.04,9.35,7.68,0,13.78-2.61,13.78-8.47,0-6.49-5.94-7.84-14.97-8.55-11.4-.79-24.39-1.74-24.39-14.25s11.32-15.92,20.83-15.92c10.93,0,19.72,4.28,23.84,7.52l-5.39,6.18Z"></path><path class="cls-1" d="M787.08,518.55h49.5v7.92h-20.27v43.79h-8.87v-43.79h-20.35v-7.92Z"></path><path class="cls-1" d="M884.55,547.21h-19.88v15.13h35v7.92h-43.87v-51.71h41.97v7.92h-33.1v12.83h19.88v7.92Z"></path><path class="cls-1" d="M937.21,518.55h8.08l23.99,51.71h-9.74l-6.26-13.94h-24.63l-6.18,13.94h-9.27l24-51.71ZM931.82,549.19h18.29l-8.87-20.04h-.47l-8.95,20.04Z"></path><path class="cls-1" d="M996.9,544.13l27-25.58h11.01l-21.14,19.8,25.74,31.91h-11.48l-20.67-25.98-10.45,9.74v16.23h-8.87v-51.71h8.87v25.58Z"></path><path class="cls-1" d="M1056.6,570.26v-51.71h8.87v19.56h28.11v-19.56h8.87v51.71h-8.87v-24.23h-28.11v24.23h-8.87Z"></path><path class="cls-1" d="M1152.73,516.96c16.31,0,29.3,12.2,29.3,27.32s-12.99,27.56-29.3,27.56-29.06-12.2-29.06-27.56,12.75-27.32,29.06-27.32ZM1152.73,563.93c11.17,0,19.96-8.87,19.96-19.64s-8.79-19.4-19.96-19.4-19.72,8.71-19.72,19.4,8.63,19.64,19.72,19.64Z"></path><path class="cls-1" d="M1247.99,518.55v33.34c0,12.75-9.82,19.96-22.97,19.96s-22.89-7.21-22.89-19.96v-33.34h8.87v33.34c0,7.76,6.18,12.04,14.02,12.04s14.1-4.28,14.1-12.04v-33.34h8.87Z"></path><path class="cls-1" d="M1309.35,530.66c-2.85-2.61-9.27-6.02-18.77-6.02-6.18,0-11.64,1.98-11.64,7.44s7.68,5.86,15.52,6.42c9.27.63,23.84,1.58,23.84,16,0,12.51-10.45,17.34-22.81,17.34-13.62,0-22.49-5.62-28.27-10.85l5.39-6.18c4.2,3.8,11.48,9.35,23.04,9.35,7.68,0,13.78-2.61,13.78-8.47,0-6.49-5.94-7.84-14.97-8.55-11.4-.79-24.39-1.74-24.39-14.25s11.32-15.92,20.83-15.92c10.93,0,19.72,4.28,23.84,7.52l-5.39,6.18Z"></path><path class="cls-1" d="M1367.7,547.21h-19.88v15.13h35v7.92h-43.87v-51.71h41.97v7.92h-33.1v12.83h19.88v7.92Z"></path></g><g><g><path class="cls-1" d="M264.4.32C177.13-3.78,122.09,32.61,91.38,59.7c-36.52,32.22-58.32,74.55-58.32,113.25,0,44.46,34.73,74.32,67.16,74.32,46.7,0,75.28-43.48,75.28-67.16,0-5.55-2.81-9.06-4.49-10.65l-.03-.03c-1.17-1.1-3.08-.48-3.39,1.09-3.81,19.68-27.64,46.95-54.48,46.95-21.57,0-34.97-16.69-34.97-43.56,0-33.72,17.89-73.29,46.68-103.26,25.29-26.33,67.79-62.33,139.95-57.71,232.07,14.86,143.56,448.64-84.94,349.78,0-.01-1.1-.5-1.1-.5,18.29-27.87,43.09-100.33,67.55-159.48,28.81-69.68,51.47-133.05,88.12-141.13,1.96-.43,2.25-3.13.39-3.9-1.41-.58-3.15-.97-5.25-.97-40.5,0-73.6,35.45-110.8,118.8-26.54,59.46-51.83,140.11-72.51,172.57-3-1.38-5.98-2.77-8.95-4.21-53.76-25.94-122.56-31.64-135.02,4.15-9,25.85,10.85,45.95,27.29,55.93,28.24,17.13,96.83,32.29,136.94-19.19,14.21,6.01,58.74,22.49,96.48,23.44,207.6,5.25,270.08-395.31,1.45-407.92ZM13.17,359.37c0-29.9,47.66-28.6,112.75,10.61-36.25,31.16-112.75,26.2-112.75-10.61Z"></path><g><path class="cls-1" d="M969.73,154.86c11.96,4.4,25.57-2.69,30.4-15.82,4.83-13.14-.95-27.35-12.91-31.75-11.96-4.4-25.57,2.69-30.4,15.82-4.83,13.14.95,27.35,12.91,31.75Z"></path><path class="cls-1" d="M1344.51,146.07l5.39,1.35-2.93,4.73c-4.79,7.74-11.05,13.74-18.97,18.17-1.07.6-.39,2.24.78,1.84,15.96-5.38,37.95-22.37,45.81-43.69,2.95-6.76,2.53-12.79-1.03-16.35-2.06-2.06-4.96-3.05-8.26-3.05-5.75,0-12.7,3-18.48,8.52-8.54,8.95-11,20.95-5.34,26.61,1.08,1.08,1.93,1.61,3.03,1.88Z"></path></g></g><path class="cls-1" d="M1486.81,278.78c-48.51,0-86.96,20.6-86.96,20.6-.43-5.89-.96-19.83-1.46-25.09-2.59-27.22-4.65-48.88,12.79-67.17-1.5-6.7-11.35-16.87-24.93-16.87-18.61,0-26.83,7.17-34.06,18.74-20.11,33.04-88.22,155.78-127.47,159.84-7.4.77-12.24-5.67-12.24-14.43,0-24.8,3.29-32.62,117.05-276.25h-42.43s-89.85,193.31-102.84,226.23l-.23.57-.36.49c-47.06,62.91-96.98,67.79-111.16,67.79-19.41,0-31.47-15.64-31.47-40.81,0-6.51.99-12.4,2.03-18.62l.83-4.97,3.65-.18c42.21-2.09,120.96-31.99,120.96-81.73,0-26.67-25.02-32.27-46.01-32.27-54.73,0-105.44,55.26-118.47,106.88l-.2.8-.47.68c-29.04,42.01-57.13,70.23-69.89,70.23-7.09,0-12.24-6.07-12.24-14.43,0-17.13,2.51-30.16,61.87-157.61h-42.17c-19.22,41.14-32.13,69.62-40.72,89.86l-.36.68c-24.82,38.65-62.87,80.8-81.06,81.5h0c-7.7,0-16.01-4.73-16.79-18.01-.67-11.34,11.57-39.7,31.95-74.02,20.94-35.52,16.77-56.68,12.42-66.13-4.03-8.77-11.24-14.48-20.3-16.09-25.96-4.78-48.69,6.77-73.71,37.42l-23.04,28.21,29.59-63.41h-42.14l-41.27,88.48c-24.72,38.55-59.49,83.57-76.13,83.57-7.43,0-12.24-5.67-12.24-14.43,0-17.04,2.56-31.42,57.15-147.67h-42.7l-8.17,19.07-3.83-11.15c-6.31-18.36-23.26-22.21-36.36-22.21-40.62,0-69.95,30.84-83.81,49.23-21.08,27.96-34.18,62.73-34.18,90.75,0,34.48,16.79,55.9,43.81,55.9,21.09,0,40.16-13.18,60.02-41.47l8.26-11.77v15.48c0,21.53,15.76,37.77,36.67,37.77,12.96,0,24.98-1.12,40.92-14.94l16.08-13.94-13.45,28.88h41.62c.3,0,.49,0,.88-.79l34.73-73.84c44.24-77.95,79.81-105.61,96.82-105.61,6.73,0,9.97,3.16,11.5,5.82,3.86,6.7,4.08,19.96-23.5,67.5-24.52,42.26-31.2,60.44-28.56,77.81,2.49,17.43,17.68,29.11,37.82,29.11s42.05-3.36,75.1-43.96l8.39-10.3-.32,13.28c-.03,1.07-.04,2.13-.04,3.21,0,21.53,15.53,37.77,36.12,37.77,21.94,0,40.19-3.8,75.38-53.01l6.63-9.27,1.56,11.3c4.87,35.2,26.48,55.38,59.29,55.38,30.71,0,64.62-5.98,104.35-49.39l7.9-8.63v12.01c0,22.56,16.54,41.61,36.12,41.61,56.89,0,114.13-111.37,136.88-145.25l7.89-11.75.43,14.14c.27,8.98.97,18.43,1.64,27.58.68,9.22,1.38,18.76,1.66,27.92l.1,3.28-3.08,1.13c-28.47,10.43-62.41,28.25-62.41,53.98,0,12.06,6.3,19.76,11.59,24.1,7.18,5.89,17.12,9.27,27.27,9.27,44.4,0,68.68-25.84,70.19-74.72l.12-3.81s78.6-41.48,128.99,17.59c.22.25.43.56.64.81,1.78-1.25,4.76-6.14,4.76-23.42,0-13.1-13.45-34.79-49.19-34.79ZM1049.01,291.3c16.44-45.21,52.84-84.86,77.9-84.86,6.13,0,10.48,4.21,11.35,10.99,2.51,19.56-24.07,64.21-83.84,79.82l-8.38,2.19,2.96-8.14ZM581.39,254.78l-.06.73-17.03,39.65c-19.21,32.61-46.92,71.47-69.86,71.47-11.09,0-18.83-10.68-18.83-25.98,0-21.84,10.18-54.15,25.93-82.3,17.87-31.95,38.32-50.27,56.1-50.27,5.6,0,10.67,2.31,14.67,6.67,7.4,8.07,10.63,22.29,9.08,40.03ZM1357.25,333.44c-2.74,26.03-14.8,39.24-35.84,39.24-11.86,0-16.08-7.46-16.08-14.43,0-13.82,25.11-23.75,46.18-29.65l6.44-1.8-.7,6.66Z"></path></g></g></g></svg>