<svg xmlns="http://www.w3.org/2000/svg" xmlns:i="http://ns.adobe.com/AdobeIllustrator/10.0/" id="Layer_1" viewBox="0 0 54.114 51.315"><defs><style>      .st0 {        fill: #004539;      }    </style></defs><path class="st0" d="M32.293.039C21.634-.462,14.911,3.983,11.161,7.292c-4.46,3.935-7.123,9.106-7.123,13.833,0,5.43,4.242,9.078,8.203,9.078,5.703,0,9.194-5.311,9.194-8.203,0-.677-.344-1.106-.549-1.301l-.004-.004c-.142-.134-.377-.059-.414.133-.466,2.404-3.376,5.734-6.654,5.734-2.634,0-4.271-2.039-4.271-5.32,0-4.119,2.185-8.951,5.701-12.611,3.089-3.215,8.28-7.613,17.093-7.048,28.344,1.815,17.534,54.795-10.375,42.721,0-.001-.134-.061-.134-.061,2.234-3.404,5.263-12.254,8.251-19.479,3.519-8.511,6.287-16.25,10.763-17.237.24-.053.275-.383.047-.476-.172-.071-.384-.118-.641-.118-4.946,0-8.989,4.33-13.533,14.51-3.242,7.263-6.331,17.113-8.856,21.077-.366-.168-.731-.339-1.093-.514-6.566-3.169-14.969-3.864-16.491.507-1.1,3.157,1.325,5.612,3.333,6.831,3.449,2.092,11.826,3.943,16.725-2.343,1.736.734,7.175,2.747,11.783,2.863,25.356.641,32.987-48.282.177-49.823ZM1.608,43.893c0-3.651,5.821-3.493,13.771,1.295-4.427,3.806-13.771,3.2-13.771-1.295Z"></path><metadata></metadata></svg>