<svg xmlns="http://www.w3.org/2000/svg" id="Layer_2" viewBox="0 0 26.88 23.32"><g id="CREATIVE"><g opacity=".2"><path d="M4.35,13.34c.79-.3,1.48-.49,2.37-.49,2.67,0,4.84,2.17,4.84,4.84,0,3.26-2.17,5.63-5.34,5.63C2.37,23.32-.1,20.55,0,15.71,0,8.5,5.83,2.07,11.66,0l.4.89c-5.14,2.57-7.41,7.41-7.71,12.45ZM19.17,13.34c.79-.3,1.48-.49,2.37-.49,2.67,0,4.84,2.17,4.84,4.84,0,3.26-2.17,5.63-5.34,5.63-3.85,0-6.32-2.77-6.22-7.61,0-7.21,5.83-13.63,11.66-15.71l.4.89c-5.14,2.57-7.41,7.41-7.71,12.45Z" fill="#174339" stroke-width="0"></path></g></g></svg>