<svg xmlns="http://www.w3.org/2000/svg" id="CREATIVE" viewBox="0 0 310 310"><defs><style>      .cls-1 {        fill: #004539;        stroke-width: 0px;      }    </style></defs><path class="cls-1" d="M184.6,16.9c-61.9,0-100.9,22.9-122.7,42.1-25.9,22.8-41.4,52.9-41.4,80.3s24.6,52.7,47.6,52.7c33.1,0,53.4-30.8,53.4-47.6s-2-6.4-3.2-7.6h0c-.8-.8-2.2-.4-2.4.8-2.7,14-19.6,33.3-38.6,33.3s-24.8-11.8-24.8-30.9,12.7-52,33.1-73.2c17.9-18.7,50.1-40.9,101.3-40.9s88.7,36.4,88.7,102.6-.7,35.7-7,52.2c-42.5,111.3-120.6,79.7-138.9,71.7,0,0,0,0,0,0l-.8-.3c13-19.8,25.3-49.6,42.7-91.5,20.4-49.4,39.3-96.4,65.3-102.2,1.4-.3,1.6-2.2.3-2.8-1-.4-2.2-.7-3.7-.7-28.7,0-55,27.2-81.4,86.3-18.8,42.2-31.5,77.8-46.2,100.8-2.1-1-4.2-2-6.3-3-38.1-18.4-86.9-22.4-95.7,2.9-6.4,18.3,7.7,32.6,19.3,39.7,20,12.1,68.7,22.9,97.1-13.6,10.1,4.3,41.6,16.6,68.4,16.6,39.1,0,58.7-13.8,81-38,24.8-26.9,37.9-64.8,37.9-109.6s-32.2-120-123.1-120ZM11.7,250c0-21.2,33.8-20.3,79.9,7.5-25.7,22.1-79.9,18.6-79.9-7.5Z"></path></svg>