<svg xmlns="http://www.w3.org/2000/svg" id="Layer_1" data-name="Layer 1" viewBox="0 0 1536 420.14"><defs><style>      .cls-1 {        fill: #fffdfa;      }    </style></defs><g><path class="cls-1" d="M264.4.32C177.13-3.78,122.09,32.61,91.38,59.7c-36.52,32.22-58.32,74.55-58.32,113.25,0,44.46,34.73,74.32,67.16,74.32,46.7,0,75.28-43.48,75.28-67.16,0-5.55-2.81-9.06-4.49-10.65l-.03-.03c-1.17-1.1-3.08-.48-3.39,1.09-3.81,19.68-27.64,46.95-54.48,46.95-21.57,0-34.97-16.69-34.97-43.56,0-33.72,17.89-73.29,46.68-103.26,25.29-26.33,67.79-62.33,139.95-57.71,232.07,14.86,143.56,448.64-84.94,349.78,0-.01-1.1-.5-1.1-.5,18.29-27.87,43.09-100.33,67.55-159.48,28.81-69.68,51.47-133.05,88.12-141.13,1.96-.43,2.25-3.13.39-3.9-1.41-.58-3.15-.97-5.25-.97-40.5,0-73.6,35.45-110.8,118.8-26.54,59.46-51.83,140.11-72.51,172.57-3-1.38-5.98-2.77-8.95-4.21-53.76-25.94-122.56-31.64-135.02,4.15-9,25.85,10.85,45.95,27.29,55.93,28.24,17.13,96.83,32.29,136.94-19.19,14.21,6.01,58.74,22.49,96.48,23.44,207.6,5.25,270.08-395.31,1.45-407.92ZM13.17,359.37c0-29.9,47.66-28.6,112.75,10.61-36.25,31.16-112.75,26.2-112.75-10.61Z"></path><g><path class="cls-1" d="M969.73,154.86c11.96,4.4,25.57-2.69,30.4-15.82,4.83-13.14-.95-27.35-12.91-31.75-11.96-4.4-25.57,2.69-30.4,15.82-4.83,13.14.95,27.35,12.91,31.75Z"></path><path class="cls-1" d="M1344.51,146.07l5.39,1.35-2.93,4.73c-4.79,7.74-11.05,13.74-18.97,18.17-1.07.6-.39,2.24.78,1.84,15.96-5.38,37.95-22.37,45.81-43.69,2.95-6.76,2.53-12.79-1.03-16.35-2.06-2.06-4.96-3.05-8.26-3.05-5.75,0-12.7,3-18.48,8.52-8.54,8.95-11,20.95-5.34,26.61,1.08,1.08,1.93,1.61,3.03,1.88Z"></path></g></g><path class="cls-1" d="M1486.81,278.78c-48.51,0-86.96,20.6-86.96,20.6-.43-5.89-.96-19.83-1.46-25.09-2.59-27.22-4.65-48.88,12.79-67.17-1.5-6.7-11.35-16.87-24.93-16.87-18.61,0-26.83,7.17-34.06,18.74-20.11,33.04-88.22,155.78-127.47,159.84-7.4.77-12.24-5.67-12.24-14.43,0-24.8,3.29-32.62,117.05-276.25h-42.43s-89.85,193.31-102.84,226.23l-.23.57-.36.49c-47.06,62.91-96.98,67.79-111.16,67.79-19.41,0-31.47-15.64-31.47-40.81,0-6.51.99-12.4,2.03-18.62l.83-4.97,3.65-.18c42.21-2.09,120.96-31.99,120.96-81.73,0-26.67-25.02-32.27-46.01-32.27-54.73,0-105.44,55.26-118.47,106.88l-.2.8-.47.68c-29.04,42.01-57.13,70.23-69.89,70.23-7.09,0-12.24-6.07-12.24-14.43,0-17.13,2.51-30.16,61.87-157.61h-42.17c-19.22,41.14-32.13,69.62-40.72,89.86l-.36.68c-24.82,38.65-62.87,80.8-81.06,81.5h0c-7.7,0-16.01-4.73-16.79-18.01-.67-11.34,11.57-39.7,31.95-74.02,20.94-35.52,16.77-56.68,12.42-66.13-4.03-8.77-11.24-14.48-20.3-16.09-25.96-4.78-48.69,6.77-73.71,37.42l-23.04,28.21,29.59-63.41h-42.14l-41.27,88.48c-24.72,38.55-59.49,83.57-76.13,83.57-7.43,0-12.24-5.67-12.24-14.43,0-17.04,2.56-31.42,57.15-147.67h-42.7l-8.17,19.07-3.83-11.15c-6.31-18.36-23.26-22.21-36.36-22.21-40.62,0-69.95,30.84-83.81,49.23-21.08,27.96-34.18,62.73-34.18,90.75,0,34.48,16.79,55.9,43.81,55.9,21.09,0,40.16-13.18,60.02-41.47l8.26-11.77v15.48c0,21.53,15.76,37.77,36.67,37.77,12.96,0,24.98-1.12,40.92-14.94l16.08-13.94-13.45,28.88h41.62c.3,0,.49,0,.88-.79l34.73-73.84c44.24-77.95,79.81-105.61,96.82-105.61,6.73,0,9.97,3.16,11.5,5.82,3.86,6.7,4.08,19.96-23.5,67.5-24.52,42.26-31.2,60.44-28.56,77.81,2.49,17.43,17.68,29.11,37.82,29.11s42.05-3.36,75.1-43.96l8.39-10.3-.32,13.28c-.03,1.07-.04,2.13-.04,3.21,0,21.53,15.53,37.77,36.12,37.77,21.94,0,40.19-3.8,75.38-53.01l6.63-9.27,1.56,11.3c4.87,35.2,26.48,55.38,59.29,55.38,30.71,0,64.62-5.98,104.35-49.39l7.9-8.63v12.01c0,22.56,16.54,41.61,36.12,41.61,56.89,0,114.13-111.37,136.88-145.25l7.89-11.75.43,14.14c.27,8.98.97,18.43,1.64,27.58.68,9.22,1.38,18.76,1.66,27.92l.1,3.28-3.08,1.13c-28.47,10.43-62.41,28.25-62.41,53.98,0,12.06,6.3,19.76,11.59,24.1,7.18,5.89,17.12,9.27,27.27,9.27,44.4,0,68.68-25.84,70.19-74.72l.12-3.81s78.6-41.48,128.99,17.59c.22.25.43.56.64.81,1.78-1.25,4.76-6.14,4.76-23.42,0-13.1-13.45-34.79-49.19-34.79ZM1049.01,291.3c16.44-45.21,52.84-84.86,77.9-84.86,6.13,0,10.48,4.21,11.35,10.99,2.51,19.56-24.07,64.21-83.84,79.82l-8.38,2.19,2.96-8.14ZM581.39,254.78l-.06.73-17.03,39.65c-19.21,32.61-46.92,71.47-69.86,71.47-11.09,0-18.83-10.68-18.83-25.98,0-21.84,10.18-54.15,25.93-82.3,17.87-31.95,38.32-50.27,56.1-50.27,5.6,0,10.67,2.31,14.67,6.67,7.4,8.07,10.63,22.29,9.08,40.03ZM1357.25,333.44c-2.74,26.03-14.8,39.24-35.84,39.24-11.86,0-16.08-7.46-16.08-14.43,0-13.82,25.11-23.75,46.18-29.65l6.44-1.8-.7,6.66Z"></path></svg>